<svg width="46" height="28" viewBox="0 0 46 28" fill="none" xmlns="http://www.w3.org/2000/svg">
<path d="M39.7917 7.8501L45.6418 5.70845V0L38.5598 5.50486C38.1144 5.84549 37.8404 6.18416 37.8404 6.6951C37.8404 7.57799 38.6958 8.25925 39.7898 7.8501H39.7917ZM37.8404 27.6613H41.6031V9.65112H37.8404V27.6613ZM20.7671 27.6613H24.5298V20.7294H33.9377V17.3309H24.5298C24.4608 14.51 26.3767 12.8107 29.012 12.8107C30.4489 12.8107 31.6808 13.3197 32.6053 13.9657L35.0001 11.2818C33.2557 9.98979 31.3734 9.31049 29.1145 9.31049C24.1534 9.31049 20.7671 12.5719 20.7671 17.3309V27.6613ZM3.83174 16.7534C4.37969 14.3064 6.32907 12.8107 9.03139 12.8107C11.7337 12.8107 13.5826 14.3064 13.9236 16.7534H3.83174ZM17.7908 18.2823C17.7908 14.1361 14.779 9.31049 9.03139 9.31049C3.96971 9.31049 0 13.0828 0 18.5192C0 23.9555 4.00322 28 9.40984 28C12.7626 28 15.4649 26.4026 17.2448 24.0593L14.6115 21.9176C13.3106 23.6169 11.5327 24.4998 9.30734 24.4998C6.36455 24.4998 4.37969 22.8338 3.83371 20.1499H15.936C17.0989 20.1499 17.7947 19.6057 17.7947 18.2804" fill="#F37021"/>
</svg>
